Coordinates
version=1
nRows=24
nColumns=24
inDegrees=yes

Units are S.I. units (second, meters, Newtons, ...)
Angles are in degrees.

endheader
time	pelvis_tilt	pelvis_list	pelvis_rotation	pelvis_tx	pelvis_ty	pelvis_tz	hip_flexion_r	hip_adduction_r	hip_rotation_r	knee_angle_r	ankle_angle_r	subtalar_angle_r	mtp_angle_r	hip_flexion_l	hip_adduction_l	hip_rotation_l	knee_angle_l	ankle_angle_l	subtalar_angle_l	mtp_angle_l	lumbar_extension	lumbar_bending	lumbar_rotation
      0.63000000	      2.85019765	      1.49779343	      5.25301923	     -0.81225839	      0.97934764	      0.31305845	     23.14574973	     -0.19239256	     -2.89461788	     -3.25093494	      8.27559352	    -13.86686938	     -0.51576595	    -23.97550020	      3.56168859	      4.92213755	     -6.75231817	      6.21217719	     -2.47367685	      9.20635837	     -2.25455129	      1.83689842	     -4.48435690
      0.63416667	      2.77946518	      1.39585029	      5.32639877	     -0.80606996	      0.97859532	      0.31324111	     23.27624424	     -0.05890340	     -2.86060438	     -3.69841137	      8.27572522	    -14.03683035	     -0.51783164	    -24.12209302	      3.37885994	      4.81864057	     -6.97703221	      5.97055498	     -2.31330142	      9.23116002	     -2.10105451	      1.97205667	     -4.52561348
      0.63833333	      2.65171515	      1.28544352	      5.38869076	     -0.79986062	      0.97777485	      0.31349634	     23.46795538	      0.09360506	     -2.73518296	     -4.18118500	      8.18216442	    -14.40143712	     -0.51396323	    -24.16212037	      3.18793090	      4.61800878	     -7.29268757	      5.84243917	     -1.97561397	      9.34674414	     -1.90050979	      2.08543664	     -4.58589866
      0.64250000	      2.61143606	      1.17715749	      5.45523367	     -0.79359888	      0.97708704	      0.31368715	     23.57739756	      0.23764512	     -2.73572747	     -4.72114550	      8.05320365	    -14.56953877	     -0.51460954	    -24.33138803	      2.99974427	      4.53568818	     -7.53263726	      5.55419276	     -1.90375783	      9.37520277	     -1.78096159	      2.22003584	     -4.60804155
      0.64666667	      2.41410577	      1.04213752	      5.49773884	     -0.78727745	      0.97622405	      0.31400760	     23.81884334	      0.43109059	     -2.46583628	     -5.22389065	      7.87581747	    -15.16521528	     -0.48728454	    -24.26086521	      2.79145101	      4.26989215	     -7.91460322	      5.38976547	     -1.48596079	      9.63548763	     -1.47367228	      2.36675457	     -4.65240776
      0.65083333	      2.33327514	      0.89383267	      5.54645975	     -0.78086789	      0.97553047	      0.31424218	     23.94550357	      0.62874816	     -2.37871989	     -5.77721086	      7.69300915	    -15.42767980	     -0.47343210	    -24.37688558	      2.56791262	      4.15259886	     -8.16891393	      5.00171545	     -1.36201589	      9.77266115	     -1.27706961	      2.56166814	     -4.67988503
      0.65500000	      2.14609882	      0.75568265	      5.58200540	     -0.77450373	      0.97472567	      0.31459719	     24.18441556	      0.83314434	     -2.12885393	     -6.34339242	      7.37954698	    -16.09894299	     -0.41994506	    -24.29654346	      2.35919413	      3.91992747	     -8.57993333	      4.78650962	     -1.07267084	     10.20905181	     -0.98773257	      2.69285691	     -4.68664164
      0.65916667	      1.99703635	      0.59048700	      5.59473515	     -0.76805494	      0.97397686	      0.31494320	     24.38087310	      1.07248911	     -1.91261650	     -6.92464450	      7.05284623	    -16.63472770	     -0.34077328	    -24.28771576	      2.13227540	      3.71706751	     -8.93125913	      4.43801835	     -0.89084925	     10.79784841	     -0.72300725	      2.87587616	     -4.70693046
      0.66333333	      1.83597915	      0.43420324	      5.64421490	     -0.76156771	      0.97327567	      0.31527424	     24.58473219	      1.29016363	     -1.74798469	     -7.52915338	      6.71487634	    -17.26516946	     -0.19328837	    -24.24747369	      1.89615828	      3.56620814	     -9.30416867	      4.05451249	     -0.63540654	     11.85379987	     -0.41911195	      3.05646318	     -4.69651950
      0.66750000	      1.76903453	      0.24389233	      5.61734332	     -0.75500881	      0.97266031	      0.31560429	     24.72416172	      1.55781588	     -1.68640518	     -8.20302234	      6.41758451	    -17.35996824	     -0.17586206	    -24.35431101	      1.65969305	      3.38347538	     -9.58922516	      3.53770527	     -0.61480712	     11.98738378	     -0.25213070	      3.28286084	     -4.72683751
      0.67166667	      1.62941083	      0.03906821	      5.61059477	     -0.74844347	      0.97201735	      0.31601555	     24.89900082	      1.85166295	     -1.48590592	     -8.80636682	      5.97866337	    -18.00233343	      0.57637940	    -24.30788138	      1.39055549	      3.10821514	     -9.99950030	      3.04143051	     -0.47567194	     16.99636351	      0.02073022	      3.52300305	     -4.61310678
      0.67583333	      1.28981681	     -0.06775375	      5.87198358	     -0.74195921	      0.97131673	      0.31658859	     25.27127181	      1.94958423	     -1.51208281	     -9.43678162	      5.57599086	    -18.44654404	      0.58116384	    -23.91868622	      1.09517633	      3.15533456	    -10.62531160	      2.60385358	     -0.21752507	     17.06918142	      0.51991665	      3.52851678	     -4.94625348
      0.68000000	      1.16312855	     -0.25207515	      5.81673750	     -0.73546810	      0.97073279	      0.31708105	     25.47170720	      2.23801036	     -1.32061872	    -10.12731213	      5.17896810	    -18.91498036	      0.59806232	    -23.85488841	      0.86752533	      2.90125537	    -11.08813913	      2.08359677	     -0.06311489	     17.22796005	      0.75662933	      3.73442541	     -4.90212096
      0.68416667	      1.03347448	     -0.45102199	      5.77640258	     -0.72892313	      0.97019770	      0.31756727	     25.67272776	      2.53234066	     -1.18617859	    -10.83035933	      4.78353641	    -19.43854130	      0.63137222	    -23.78159999	      0.61794925	      2.68840189	    -11.55389361	      1.54310383	      0.10747461	     17.58397739	      1.01170077	      3.96326865	     -4.85670494
      0.68833333	      1.00707203	     -0.63907977	      5.73587520	     -0.72238240	      0.96981735	      0.31800679	     25.78844748	      2.80197175	     -1.20561515	    -11.59444878	      4.47542658	    -19.53969057	      0.63189291	    -23.81060524	      0.37800301	      2.49253907	    -12.02611620	      0.91901773	      0.08782758	     17.62711999	      1.12557342	      4.18481472	     -4.86666447
      0.69250000	      0.77742436	     -0.84963398	      5.66752485	     -0.71578339	      0.96923570	      0.31858897	     26.08644166	      3.11424785	     -1.02462135	    -12.29053832	      4.04745385	    -20.06921571	      0.67145203	    -23.56828210	      0.12650815	      2.22184062	    -12.60053631	      0.31171193	      0.33669714	     18.13543772	      1.51159482	      4.41270723	     -4.77446483
      0.69666667	      0.70511392	     -1.06625258	      5.61051562	     -0.70918247	      0.96890900	      0.31913437	     26.20912699	      3.42681298	     -0.96504090	    -12.97950966	      3.68523615	    -20.31539664	      1.03375015	    -23.49293496	     -0.14866432	      1.95380742	    -13.14240109	     -0.49149160	      0.36888489	     22.92239546	      1.68884854	      4.64976632	     -4.75040190
      0.70083333	      0.61304552	     -1.29138095	      5.54275254	     -0.70254495	      0.96859200	      0.31966200	     26.37527026	      3.73462207	     -0.98826168	    -13.73010324	      3.43305714	    -20.40023815	      1.03342209	    -23.39333364	     -0.41740971	      1.74085222	    -13.69421511	     -1.25304550	      0.39344008	     22.94311640	      1.90132572	      4.91901551	     -4.74922127
      0.70500000	      0.45405050	     -1.49046335	      5.47850891	     -0.69599326	      0.96823488	      0.32025990	     26.61147617	      4.01632152	     -0.96133314	    -14.47870479	      3.16099558	    -20.59007840	      1.03651143	    -23.14042778	     -0.66675358	      1.49554469	    -14.39699801	     -1.96455677	      0.49091990	     23.07568620	      2.17539112	      5.12067051	     -4.70727501
      0.70916667	      0.32981666	     -1.69606189	      5.41246903	     -0.68943750	      0.96797454	      0.32084862	     26.80716568	      4.30049167	     -0.97915425	    -15.23088929	      2.92845665	    -20.76830420	      1.03947236	    -22.91222455	     -0.92537301	      1.26021594	    -15.10623963	     -2.72118949	      0.58236222	     23.36810207	      2.42188258	      5.35524046	     -4.67809373
      0.71333333	      0.20674655	     -1.90266885	      5.34252920	     -0.68289856	      0.96776621	      0.32145948	     26.99678146	      4.58195174	     -1.01688346	    -15.97757304	      2.74240552	    -20.83919844	      1.03919001	    -22.65769102	     -1.18442547	      1.04345083	    -15.85369097	     -3.51980316	      0.62611779	     23.80056562	      2.65189273	      5.57980989	     -4.65972697
      0.71750000	      0.15779015	     -2.11084421	      5.28791471	     -0.67639409	      0.96771160	      0.32204867	     27.08736076	      4.85968914	     -1.08883159	    -16.69236350	      2.63932594	    -20.83493355	      0.99225777	    -22.45932804	     -1.45786626	      0.84577588	    -16.61255166	     -4.48342400	      0.56570186	     27.42626561	      2.78738789	      5.81118493	     -4.70412232
      0.72166667	      0.13229932	     -2.33268967	      5.22094476	     -0.66990621	      0.96773337	      0.32265776	     27.14223423	      5.15414782	     -1.17616195	    -17.38581650	      2.51635751	    -20.83965074	      0.99003458	    -22.25665644	     -1.74247879	      0.64253706	    -17.42288660	     -5.36723993	      0.56207455	     27.43636438	      2.89554138	      6.07560131	     -4.66789753
      0.72583333	      0.03606692	     -2.52796235	      5.15353537	     -0.66351267	      0.96770983	      0.32331213	     27.26295265	      5.41954747	     -1.21775875	    -18.06184165	      2.45290265	    -20.78720595	      0.98405212	    -21.90893661	     -2.00257663	      0.43856393	    -18.35282292	     -6.25050932	      0.58074544	     27.50317079	      3.07489286	      6.27861708	     -4.63340301
